<svg xmlns="http://www.w3.org/2000/svg" version="1.1" xmlns:xlink="http://www.w3.org/1999/xlink" xmlns:svgjs="http://svgjs.dev/svgjs" width="1000" height="739" viewBox="0 0 1000 739"><g transform="matrix(1,0,0,1,-0.40131852628167053,0.2992011661164611)"><svg viewBox="0 0 334 247" data-background-color="#ffffff" preserveAspectRatio="xMidYMid meet" height="739" width="1000" xmlns="http://www.w3.org/2000/svg" xmlns:xlink="http://www.w3.org/1999/xlink"><g id="tight-bounds" transform="matrix(1,0,0,1,0.1340406151149125,-0.09999636261065348)"><svg viewBox="0 0 333.731918997107 247.2" height="247.2" width="333.731918997107"><g><svg viewBox="0 0 333.7319189971071 247.20000000000002" height="247.2" width="333.731918997107"><g><svg viewBox="0 0 333.7319189971071 247.20000000000002" height="247.20000000000002" width="333.7319189971071"><g id="textblocktransform"><svg viewBox="0 0 333.7319189971071 247.20000000000002" height="247.20000000000002" width="333.7319189971071" id="textblock"><g><svg viewBox="0 0 333.7319189971071 247.20000000000002" height="247.20000000000002" width="333.7319189971071"><g transform="matrix(1,0,0,1,0,0)"><svg width="333.7319189971071" viewBox="1.7000000476837158 -38.099998474121094 70 51.849998474121094" height="247.20000000000002" data-palette-color="#ca3433"><g class="undefined-text-0" data-fill-palette-color="primary" id="text-0"><path d="M30.4 0.1L30.4 0.1Q27.6 0.1 26.18-1.73 24.75-3.55 24.25-8.55L24.25-8.55Q23.95-11.15 23.65-15.3L23.65-15.3Q20.15-14.25 16.6-13.1L16.6-13.1 14.9-8.4Q14.4-7.05 14.2-6.48 14-5.9 13.48-4.75 12.95-3.6 12.58-3.08 12.2-2.55 11.53-1.75 10.85-0.95 10.15-0.6L10.15-0.6Q8.35 0.3 6.3 0.3 4.25 0.3 2.98-1.18 1.7-2.65 1.7-4.8L1.7-4.8Q1.7-5.4 1.8-6.05L1.8-6.05Q2.45-10.85 11.65-14.8L11.65-14.8Q14.25-21.45 20.3-37.2L20.3-37.2Q21.9-38.1 24.35-38.1L24.35-38.1Q24.9-38.1 25.4-38.1 25.9-38.1 26.63-38.1 27.35-38.1 28.45-37.8L28.45-37.8Q28.5-35.45 30.75-8.65L30.75-8.65Q30.95-6.4 31.3-5.73 31.65-5.05 32.5-5.05L32.5-5.05Q33.9-5.05 36.23-6.95 38.55-8.85 40.4-11.7L40.4-11.7 41.8-8.3 40.6-6.7Q35.35 0.1 30.4 0.1ZM23.3-19L22.45-29.4 18.1-17.25Q21.6-18.45 23.3-19L23.3-19ZM9.9-10.45Q5.25-8.1 5.25-5.85L5.25-5.85Q5.25-4.25 6.45-4.25L6.45-4.25Q7.35-4.25 7.9-5.55L7.9-5.55Q8.55-6.95 9.9-10.45L9.9-10.45ZM52.25 13.75L52.25 13.75Q49.45 13.75 47.47 12.03 45.5 10.3 45.5 6.75 45.5 3.2 48.9 0.1L48.9 0.1Q42.85-0.75 40-4.58 37.15-8.4 37.15-14.48 37.15-20.55 39.37-25.88 41.6-31.2 46-34.63 50.4-38.05 55.52-38.05 60.65-38.05 63.57-35.58 66.5-33.1 66.5-28.8 66.5-24.5 63.95-21.88 61.4-19.25 57.92-19.25 54.45-19.25 52.55-20.78 50.65-22.3 50.65-24.03 50.65-25.75 52.02-26.73 53.4-27.7 56.05-27.7L56.05-27.7Q55.4-27.05 55.4-25.98 55.4-24.9 56.05-24.1 56.7-23.3 58.02-23.3 59.35-23.3 60.52-24.7 61.7-26.1 61.7-28.53 61.7-30.95 60.45-32.3 59.2-33.65 56.65-33.65L56.65-33.65Q53.25-33.65 50.47-30.9 47.7-28.15 46.25-23.9 44.8-19.65 44.8-14.95L44.8-14.95Q44.8-10.9 46.55-7.8L46.55-7.8Q47.45-6.2 49.22-5.25 51-4.3 52.72-4.3 54.45-4.3 55.5-4.45L55.5-4.45 56.75-15.35 63.75-15.35 62.65-7.2Q68.05-10.05 69.75-13.4L69.75-13.4 71.7-10.65Q68.45-5.65 62.1-3.05L62.1-3.05 61.45 2.35Q61.05 6 60 8.45 58.95 10.9 57.52 11.98 56.1 13.05 54.9 13.4 53.7 13.75 52.25 13.75ZM49.95 6.6L49.95 6.6Q49.95 7.5 50.5 8.15 51.05 8.8 51.77 8.8 52.5 8.8 52.9 8.55 53.3 8.3 53.75 7.25 54.2 6.2 54.45 4.3L54.45 4.3 54.95 0.2Q49.95 3.3 49.95 6.6Z" fill="#ca3433" data-fill-palette-color="primary"></path></g></svg></g></svg></g></svg></g></svg></g><g></g></svg></g><defs></defs></svg><rect width="333.731918997107" height="247.2" fill="none" stroke="none" visibility="hidden"></rect></g></svg></g></svg>